<svg xmlns="http://www.w3.org/2000/svg" viewBox="0 0 28 28" width="28" height="28"> <g fill="#ffffff" fill-rule="nonzero"> <path d="M22.5 4v-1h-19.5v19.5h1v-18.5z">
  </path> <path d="M5.493 24v1h19.507v-19.5h-1v18.5z">
  </path> <path d="M5.275 23.432l18.213-18.213-.707-.707-18.213 18.213z">
  </path> <path d="M5.568 24.383l19.079-5.906-.296-.955-19.079 5.906z" id="Line-Copy-18">
  </path> <path d="M4.587 22.68l5.891-19.032-.955-.296-5.891 19.032z">
  </path> <path d="M3.5 11h21v-1h-21z">
  </path> <path d="M3.5 18h21v-1h-21z">
  </path> <path d="M10 3.5v21h1v-21z">
  </path> <path d="M17 3.5v21h1v-21z">
  </path> <path d="M23.975 23.475l1.025 1.025c0-11.874-9.626-21.5-21.5-21.5l1.025 1.025c10.506.517 18.932 8.944 19.45 19.45z">
  </path> <path d="M3.5 26c.828 0 1.5-.672 1.5-1.5s-.672-1.5-1.5-1.5-1.5.672-1.5 1.5.672 1.5 1.5 1.5zm0 1c-1.381 0-2.5-1.119-2.5-2.5s1.119-2.5 2.5-2.5 2.5 1.119 2.5 2.5-1.119 2.5-2.5 2.5zM24.5 5c.828 0 1.5-.672 1.5-1.5s-.672-1.5-1.5-1.5-1.5.672-1.5 1.5.672 1.5 1.5 1.5zm0 1c-1.381 0-2.5-1.119-2.5-2.5s1.119-2.5 2.5-2.5 2.5 1.119 2.5 2.5-1.119 2.5-2.5 2.5z">
  </path> </g> </svg>