<svg xmlns="http://www.w3.org/2000/svg" viewBox="0 0 28 28" width="28" height="28"> <g fill="#ffffff" fill-rule="nonzero"> <path d="M3.5 11h21v-1h-21z">
  </path> <path d="M3.5 18h21v-1h-21z">
  </path> <path d="M10 3.5v21h1v-21z">
  </path> <path d="M17 3.5v21h1v-21z">
  </path> <path d="M22.5 4v-1h-19.5v19.5h1v-18.5z">
  </path> <path d="M24 24h-18.507v1h19.507v-19.5h-1z">
  </path> <path d="M3.5 26c.828 0 1.5-.672 1.5-1.5s-.672-1.5-1.5-1.5-1.5.672-1.5 1.5.672 1.5 1.5 1.5zm0 1c-1.381 0-2.5-1.119-2.5-2.5s1.119-2.5 2.5-2.5 2.5 1.119 2.5 2.5-1.119 2.5-2.5 2.5zM24.5 5c.828 0 1.5-.672 1.5-1.5s-.672-1.5-1.5-1.5-1.5.672-1.5 1.5.672 1.5 1.5 1.5zm0 1c-1.381 0-2.5-1.119-2.5-2.5s1.119-2.5 2.5-2.5 2.5 1.119 2.5 2.5-1.119 2.5-2.5 2.5z">
  </path> </g> </svg>