<svg xmlns="http://www.w3.org/2000/svg" viewBox="0 0 28 28" width="28" height="28"> <g fill="#ffffff" fill-rule="nonzero"> <path d="M6.5 23h12v-1h-12z" id="Line">
  </path> <path d="M21.596 20.715l3.091-9.66-.952-.305-3.091 9.66z">
  </path> <path d="M8.413 22.664l1.95-6.094-.952-.305-1.95 6.094z">
  </path> <path d="M11.602 12.695l3.085-9.641-.952-.305-3.085 9.641z">
  </path> <path d="M11.783 16.167l6.817 5.454.625-.781-6.817-5.454z">
  </path> <path d="M15.976 18.652l3.711-11.598-.952-.305-3.711 11.598z">
  </path> <path d="M4.5 24c.828 0 1.5-.672 1.5-1.5s-.672-1.5-1.5-1.5-1.5.672-1.5 1.5.672 1.5 1.5 1.5zm0 1c-1.381 0-2.5-1.119-2.5-2.5s1.119-2.5 2.5-2.5 2.5 1.119 2.5 2.5-1.119 2.5-2.5 2.5zM10.5 16c.828 0 1.5-.672 1.5-1.5s-.672-1.5-1.5-1.5-1.5.672-1.5 1.5.672 1.5 1.5 1.5zm0 1c-1.381 0-2.5-1.119-2.5-2.5s1.119-2.5 2.5-2.5 2.5 1.119 2.5 2.5-1.119 2.5-2.5 2.5zM20.5 24c.828 0 1.5-.672 1.5-1.5s-.672-1.5-1.5-1.5-1.5.672-1.5 1.5.672 1.5 1.5 1.5zm0 1c-1.381 0-2.5-1.119-2.5-2.5s1.119-2.5 2.5-2.5 2.5 1.119 2.5 2.5-1.119 2.5-2.5 2.5z">
  </path> </g> </svg>