<svg xmlns="http://www.w3.org/2000/svg" viewBox="0 0 28 28" width="28" height="28"> <g fill="#ffffff" fill-rule="nonzero"> <path d="M20.349 20.654l4.489-.711-.156-.988-4.489.711z">
  </path> <path d="M7.254 22.728l9.627-1.525-.156-.988-9.627 1.525z">
  </path> <path d="M7.284 22.118l15.669-8.331-.469-.883-15.669 8.331z">
  </path> <path d="M6.732 21.248l8.364-15.731-.883-.469-8.364 15.731z">
  </path> <path d="M17.465 18.758l-8.188-8.188-.707.707 8.188 8.188z">
  </path> <path d="M6.273 20.818l1.499-9.467-.988-.156-1.499 9.467z">
  </path> <path d="M8.329 7.834l.715-4.516-.988-.156-.715 4.516z">
  </path> <path d="M7.354 21.354l17-17-.707-.707-17 17z">
  </path> <path d="M5.5 24c.828 0 1.5-.672 1.5-1.5s-.672-1.5-1.5-1.5-1.5.672-1.5 1.5.672 1.5 1.5 1.5zm0 1c-1.381 0-2.5-1.119-2.5-2.5s1.119-2.5 2.5-2.5 2.5 1.119 2.5 2.5-1.119 2.5-2.5 2.5zM7.5 11c.828 0 1.5-.672 1.5-1.5s-.672-1.5-1.5-1.5-1.5.672-1.5 1.5.672 1.5 1.5 1.5zm0 1c-1.381 0-2.5-1.119-2.5-2.5s1.119-2.5 2.5-2.5 2.5 1.119 2.5 2.5-1.119 2.5-2.5 2.5zM18.5 22c.828 0 1.5-.672 1.5-1.5s-.672-1.5-1.5-1.5-1.5.672-1.5 1.5.672 1.5 1.5 1.5zm0 1c-1.381 0-2.5-1.119-2.5-2.5s1.119-2.5 2.5-2.5 2.5 1.119 2.5 2.5-1.119 2.5-2.5 2.5z">
  </path> </g> </svg>