<?xml version="1.0" encoding="UTF-8"?>
<svg xmlns="http://www.w3.org/2000/svg" viewBox="0 0 44 44" width="44" height="44" fill="none"><path fill="#FFFFFF" d="M12 10c-.335 0-.669.008-1 .023v1.002c.331-.017.665-.025 1-.025 11.046 0 20 8.954 20 20 0 .335-.008.669-.025 1h1.002c.015-.331.023-.665.023-1 0-11.598-9.402-21-21-21Z"></path><path fill="#FFFFFF" d="M27 31c0 .336-.011.67-.033 1h-1.002c.023-.33.035-.664.035-1 0-7.732-6.268-14-14-14-.336 0-.67.012-1 .035v-1.002c.33-.022.664-.033 1-.033 8.284 0 15 6.716 15 15Z"></path><path fill="#FFFFFF" d="M21 31c0 .338-.019.672-.055 1h-1.007A8 8 0 0 0 11 23.062v-1.007A9 9 0 0 1 21 31Z"></path><path fill="#FFFFFF" fill-rule="evenodd" clip-rule="evenodd" d="M15 30a2 2 0 1 1-4 0 2 2 0 0 1 4 0Zm-1 0a1 1 0 1 1-2 0 1 1 0 0 1 2 0Z"></path></svg>