<svg xmlns="http://www.w3.org/2000/svg" viewBox="0 0 44 44" width="44" height="44" fill="none">
  <path fill="#ffffff" d="M22 8c7.732 0 14 6.268 14 14s-6.268 14-14 14S8 29.732 8 22 14.268 8 22 8m0 1C14.82 9 9 14.82 9 22s5.82 13 13 13 13-5.82 13-13S29.18 9 22 9m.201 18.01A2.016 2.016 0 0 1 24 29l-.01.204A2.017 2.017 0 0 1 22 31l-.201-.01a2.02 2.02 0 0 1-1.788-1.785L20 29c0-1.104.917-2 2-2zM22 28c-.537 0-1 .455-1 1s.462 1 1 1 1-.455 1-1-.462-1-1-1m.31-15C24.9 13 27 15.1 27 17.69a4.31 4.31 0 0 1-2.195 3.754l-.872.492a2.81 2.81 0 0 0-1.433 2.45V25h-1v-.614c0-1.377.743-2.647 1.942-3.322l.872-.49A3.31 3.31 0 0 0 26 17.688 3.69 3.69 0 0 0 22.31 14H22a4 4 0 0 0-4 4h-1a5 5 0 0 1 5-5z"/>
</svg>
