<svg xmlns="http://www.w3.org/2000/svg" viewBox="0 0 44 44" width="44" height="44" fill="none">
  <path fill="#ffffff" d="M22 8a3.99 3.99 0 0 1 3.941 3.303A10 10 0 0 1 32 20.496v6.554a2.501 2.501 0 0 1-.5 4.95h-5.626a4.002 4.002 0 0 1-7.748 0H12.5a2.5 2.5 0 0 1-.5-4.95v-6.554c0-4.123 2.496-7.664 6.059-9.193A3.99 3.99 0 0 1 22 8m-2.83 24a3.001 3.001 0 0 0 5.66 0zm-6.67-4a1.5 1.5 0 0 0 0 3h19a1.5 1.5 0 0 0 0-3zM22 8.987a3 3 0 0 0-2.956 2.486L18.95 12l-.498.222A9 9 0 0 0 13 20.496V27h18v-6.504a9 9 0 0 0-5.453-8.274L25.049 12l-.093-.527A3 3 0 0 0 22 8.987"/>
</svg>
