<?xml version="1.0" encoding="UTF-8"?>
<svg xmlns="http://www.w3.org/2000/svg" viewBox="0 0 44 44" width="44" height="44" fill="#FFFFFF"><g clip-path="url(#a)"><path fill="#FFFFFF" fill-rule="evenodd" clip-rule="evenodd" d="M22 8a14 14 0 1 0 0 28 14 14 0 0 0 0-28ZM9 22a13 13 0 0 1 22.03-9.35L27.5 16.2a8 8 0 1 0 .68.73l3.55-3.55A13 13 0 1 1 9 22Zm17.79-5.1a7 7 0 1 0 .68.74l-3.62 3.6A2 2 0 0 1 22 24a2 2 0 1 1 1.25-3.56l3.54-3.54Z"></path></g><defs><clipPath id="a"><path fill="#FFFFFF" d="M0 0h44v44H0z"></path></clipPath></defs></svg>