<?xml version="1.0" encoding="UTF-8"?>
<svg xmlns="http://www.w3.org/2000/svg" viewBox="0 0 28 28" width="28" height="28"><path fill="#FFFFFF" fill-rule="evenodd" d="M8 7h3a1 1 0 0 1 1 1v3a1 1 0 0 1-1 1H8a1 1 0 0 1-1-1V8a1 1 0 0 1 1-1zM6 8c0-1.1.9-2 2-2h3a2 2 0 0 1 2 2v3a2 2 0 0 1-2 2H8a2 2 0 0 1-2-2V8zm11-1h3a1 1 0 0 1 1 1v3a1 1 0 0 1-1 1h-3a1 1 0 0 1-1-1V8a1 1 0 0 1 1-1zm-2 1c0-1.1.9-2 2-2h3a2 2 0 0 1 2 2v3a2 2 0 0 1-2 2h-3a2 2 0 0 1-2-2V8zm-4 8H8a1 1 0 0 0-1 1v3a1 1 0 0 0 1 1h3a1 1 0 0 0 1-1v-3a1 1 0 0 0-1-1zm-3-1a2 2 0 0 0-2 2v3c0 1.1.9 2 2 2h3a2 2 0 0 0 2-2v-3a2 2 0 0 0-2-2H8zm9 1h3a1 1 0 0 1 1 1v3a1 1 0 0 1-1 1h-3a1 1 0 0 1-1-1v-3a1 1 0 0 1 1-1zm-2 1c0-1.1.9-2 2-2h3a2 2 0 0 1 2 2v3a2 2 0 0 1-2 2h-3a2 2 0 0 1-2-2v-3z"></path></svg>