<svg xmlns="http://www.w3.org/2000/svg" viewBox="0 0 28 28" width="28" height="28" fill="#ffffff"> <path fill="#ffffff" fill-rule="evenodd" clip-rule="evenodd" d="M4.5 24a1.5 1.5 0 1 1 0-3 1.5 1.5 0 0 1 0 3zM2 22.5a2.5 2.5 0 0 0 4.95.5H24v-1H6.95a2.5 2.5 0 0 0-4.95.5zM4.5 14a1.5 1.5 0 1 1 0-3 1.5 1.5 0 0 1 0 3zM2 12.5a2.5 2.5 0 0 0 4.95.5h13.1a2.5 2.5 0 1 0 0-1H6.95a2.5 2.5 0 0 0-4.95.5zM22.5 14a1.5 1.5 0 1 1 0-3 1.5 1.5 0 0 1 0 3zm-18-6a1.5 1.5 0 1 1 0-3 1.5 1.5 0 0 1 0 3zM2 6.5a2.5 2.5 0 0 0 4.95.5H24V6H6.95A2.5 2.5 0 0 0 2 6.5z">
  </path> <path fill="#ffffff" fill-rule="evenodd" clip-rule="evenodd" d="M22.4 20.06l-1.39-.63-.41.91 1.39.63.41-.91zm-4-1.8l-1.39-.63-.41.91 1.39.63.41-.91zm-4-1.8l-1.4-.63-.4.91 1.39.63.41-.91zm-4-1.8L9 14.03l-.4.91 1.39.63.41-.91z">
  </path> </svg>