<svg xmlns="http://www.w3.org/2000/svg" viewBox="0 0 28 28" width="28" height="28"> <g fill="#ffffff" fill-rule="nonzero"> <path d="M4.395 10.18c3.432-4.412 10.065-4.998 13.675-.973l.745-.668c-4.044-4.509-11.409-3.858-15.209 1.027l.789.614z">
  </path> <path d="M19.991 12.494c.877 2.718.231 5.487-1.897 7.543-2.646 2.556-6.752 2.83-9.188.477-1.992-1.924-2.027-5.38-.059-7.281 1.582-1.528 3.78-1.587 5.305-.115 1.024.99 1.386 2.424.876 3.491l.902.431c.709-1.482.232-3.37-1.084-4.641-1.921-1.855-4.734-1.78-6.695.115-2.378 2.297-2.337 6.405.059 8.719 2.846 2.749 7.563 2.435 10.577-.477 2.407-2.325 3.147-5.493 2.154-8.569l-.952.307z">
  </path> <path d="M21.01 9.697l3.197-3.197-.707-.707-3.197 3.197z">
  </path> <path d="M14.989 15.719l3.674-3.674-.707-.707-3.674 3.674z">
  </path> <path d="M13.5 18c.828 0 1.5-.672 1.5-1.5s-.672-1.5-1.5-1.5-1.5.672-1.5 1.5.672 1.5 1.5 1.5zm0 1c-1.381 0-2.5-1.119-2.5-2.5s1.119-2.5 2.5-2.5 2.5 1.119 2.5 2.5-1.119 2.5-2.5 2.5zM19.5 12c.828 0 1.5-.672 1.5-1.5s-.672-1.5-1.5-1.5-1.5.672-1.5 1.5.672 1.5 1.5 1.5zm0 1c-1.381 0-2.5-1.119-2.5-2.5s1.119-2.5 2.5-2.5 2.5 1.119 2.5 2.5-1.119 2.5-2.5 2.5z">
  </path> </g> </svg>