<svg xmlns="http://www.w3.org/2000/svg" viewBox="0 0 28 28" width="28" height="28"> <g fill="#ffffff" fill-rule="nonzero"> <path d="M8 9.5c0 3.038 2.462 5.5 5.5 5.5s5.5-2.462 5.5-5.5v-.5h-1v.5c0 2.485-2.015 4.5-4.5 4.5s-4.5-2.015-4.5-4.5v-.5h-1v.5z">
  </path> <path d="M0 9.5c0 7.456 6.044 13.5 13.5 13.5s13.5-6.044 13.5-13.5v-.5h-1v.5c0 6.904-5.596 12.5-12.5 12.5s-12.5-5.596-12.5-12.5v-.5h-1v.5z">
  </path> <path d="M4 9.5c0 4.259 2.828 7.964 6.86 9.128l.48.139.277-.961-.48-.139c-3.607-1.041-6.137-4.356-6.137-8.167v-.5h-1v.5z">
  </path> <path d="M16.141 18.628c4.032-1.165 6.859-4.869 6.859-9.128v-.5h-1v.5c0 3.811-2.53 7.125-6.136 8.167l-.48.139.278.961.48-.139z">
  </path> <path d="M13.5 20c.828 0 1.5-.672 1.5-1.5s-.672-1.5-1.5-1.5-1.5.672-1.5 1.5.672 1.5 1.5 1.5zm0 1c-1.381 0-2.5-1.119-2.5-2.5s1.119-2.5 2.5-2.5 2.5 1.119 2.5 2.5-1.119 2.5-2.5 2.5zM13.5 11c.828 0 1.5-.672 1.5-1.5s-.672-1.5-1.5-1.5-1.5.672-1.5 1.5.672 1.5 1.5 1.5zm0 1c-1.381 0-2.5-1.119-2.5-2.5s1.119-2.5 2.5-2.5 2.5 1.119 2.5 2.5-1.119 2.5-2.5 2.5z">
  </path> </g> </svg>