<svg xmlns="http://www.w3.org/2000/svg" viewBox="0 0 28 28" width="28" height="28"> <path fill="#ffffff" fill-rule="evenodd" d="M19 4v21h1V4h-1Zm5 0v21h1V4h-1ZM6 12.95V25H5V12.95a2.5 2.5 0 0 1 0-4.9V4h1v4.05a2.5 2.5 0 0 1 1.67 3.7L8.7 12.8 8 13.5l-1-1c-.3.22-.63.38-1 .45ZM5.5 9a1.5 1.5 0 1 1 0 3 1.5 1.5 0 0 1 0-3ZM13 19.5a1.5 1.5 0 1 1 3 0 1.5 1.5 0 0 1-3 0Zm1 5.5v-3.05A2.5 2.5 0 0 1 12.5 18l-1-1 .7-.7 1.05 1.03c.23-.13.48-.23.75-.28V4h1v13.05a2.5 2.5 0 0 1 0 4.9V25h-1ZM8.97 14.47l1.56 1.56.7-.71-1.55-1.55-.7.7Z">
  </path> </svg>