<svg xmlns="http://www.w3.org/2000/svg" viewBox="0 0 28 28" width="28" height="28"> <g fill="#ffffff" fill-rule="nonzero"> <path d="M21.5 23h-14v1h14zM5 7.5v14h1v-14z">
  </path> <path d="M12 23c0-3.314-2.686-6-6-6h-.5v1h.5c2.761 0 5 2.239 5 5v.5h1v-.5z">
  </path> <path d="M20 23c0-7.732-6.268-14-14-14h-.5v1h.5c7.18 0 13 5.82 13 13v.5h1v-.5z">
  </path> <path d="M16 23c0-5.523-4.477-10-10-10h-.5v1h.5c4.971 0 9 4.029 9 9v.5h1v-.5z">
  </path> <path d="M5.5 7c.828 0 1.5-.672 1.5-1.5s-.672-1.5-1.5-1.5-1.5.672-1.5 1.5.672 1.5 1.5 1.5zm0 1c-1.381 0-2.5-1.119-2.5-2.5s1.119-2.5 2.5-2.5 2.5 1.119 2.5 2.5-1.119 2.5-2.5 2.5zM23.5 25c.828 0 1.5-.672 1.5-1.5s-.672-1.5-1.5-1.5-1.5.672-1.5 1.5.672 1.5 1.5 1.5zm0 1c-1.381 0-2.5-1.119-2.5-2.5s1.119-2.5 2.5-2.5 2.5 1.119 2.5 2.5-1.119 2.5-2.5 2.5zM5.5 25c.828 0 1.5-.672 1.5-1.5s-.672-1.5-1.5-1.5-1.5.672-1.5 1.5.672 1.5 1.5 1.5zm0 1c-1.381 0-2.5-1.119-2.5-2.5s1.119-2.5 2.5-2.5 2.5 1.119 2.5 2.5-1.119 2.5-2.5 2.5z">
  </path> </g> </svg>