<svg xmlns="http://www.w3.org/2000/svg" viewBox="0 0 28 28" width="28" height="28"> <g fill="#ffffff" fill-rule="nonzero"> <path d="M23.868 7.825c2.791 3.916 2.918 9.33-.065 13.435-3.733 5.138-10.925 6.277-16.063 2.544l.721-.714c4.682 3.294 11.157 2.229 14.534-2.418 2.641-3.635 2.657-8.502.153-12.133l.721-.714z">
  </path> <path d="M8.477 5.899c3.584-2.509 8.298-2.514 11.865-.127l.718-.721c-3.845-2.669-9.099-2.813-13.157.028-5.203 3.643-6.467 10.814-2.824 16.016l.718-.721c-3.201-4.737-2.022-11.185 2.68-14.476z">
  </path> <path d="M14.5 22c4.142 0 7.5-3.358 7.5-7.5 0-4.142-3.358-7.5-7.5-7.5-4.142 0-7.5 3.358-7.5 7.5 0 4.142 3.358 7.5 7.5 7.5zm0 1c-4.694 0-8.5-3.806-8.5-8.5s3.806-8.5 8.5-8.5 8.5 3.806 8.5 8.5-3.806 8.5-8.5 8.5z">
  </path> <path d="M14.5 19c2.485 0 4.5-2.015 4.5-4.5s-2.015-4.5-4.5-4.5-4.5 2.015-4.5 4.5 2.015 4.5 4.5 4.5zm0 1c-3.038 0-5.5-2.462-5.5-5.5s2.462-5.5 5.5-5.5 5.5 2.462 5.5 5.5-2.462 5.5-5.5 5.5z">
  </path> <path d="M22.5 8c.828 0 1.5-.672 1.5-1.5s-.672-1.5-1.5-1.5-1.5.672-1.5 1.5.672 1.5 1.5 1.5zm0 1c-1.381 0-2.5-1.119-2.5-2.5s1.119-2.5 2.5-2.5 2.5 1.119 2.5 2.5-1.119 2.5-2.5 2.5zM6.5 24c.828 0 1.5-.672 1.5-1.5s-.672-1.5-1.5-1.5-1.5.672-1.5 1.5.672 1.5 1.5 1.5zm0 1c-1.381 0-2.5-1.119-2.5-2.5s1.119-2.5 2.5-2.5 2.5 1.119 2.5 2.5-1.119 2.5-2.5 2.5z">
  </path> </g> </svg>