<svg xmlns="http://www.w3.org/2000/svg" viewBox="0 0 28 28" width="28" height="28"> <g fill="#ffffff" fill-rule="nonzero"> <path d="M6 6v6.5h1v-6.5zM7 22v-2.5h-1v2.5zM11 11v2.5h1v-2.5zM12 24v-7.5h-1v7.5zM16 5v5.5h1v-5.5zM17 21v-2.5h-1v2.5zM21 7v4.5h1v-4.5zM22 19v-2.5h-1v2.5z">
  </path> <path d="M6 13v6h1v-6h-1zm-1-1h3v8h-3v-8z">
  </path> <path d="M11 16h1v-2h-1v2zm-1-3h3v4h-3v-4z">
  </path> <path d="M16 18h1v-7h-1v7zm-1-8h3v9h-3v-9z">
  </path> <path d="M21 16h1v-4h-1v4zm-1-5h3v6h-3v-6z">
  </path> </g> </svg>