<svg xmlns="http://www.w3.org/2000/svg" viewBox="0 0 28 28" width="28" height="28"> <g fill="#ffffff"> <path d="M15.246 21.895l1.121.355c-.172.625-.458 1.089-.857 1.393-.4.303-.907.455-1.521.455-.76 0-1.385-.26-1.875-.779-.49-.52-.734-1.23-.734-2.131 0-.953.246-1.693.738-2.221.492-.527 1.139-.791 1.941-.791.701 0 1.27.207 1.707.621.26.245.456.596.586 1.055l-1.145.273c-.068-.297-.209-.531-.424-.703-.215-.172-.476-.258-.783-.258-.424 0-.769.152-1.033.457-.264.305-.396.798-.396 1.48 0 .724.13 1.24.391 1.547.26.307.599.461 1.016.461.307 0 .572-.098.793-.293.221-.195.38-.503.477-.922z">
  </path> <path fill-rule="nonzero" d="M20.449 8.505l2.103 9.112.974-.225-2.103-9.112zM13.943 14.011l7.631 4.856.537-.844-7.631-4.856zM14.379 11.716l4.812-3.609-.6-.8-4.812 3.609zM10.96 13.828l-4.721 6.744.819.573 4.721-6.744zM6.331 20.67l2.31-13.088-.985-.174-2.31 13.088zM9.041 7.454l1.995 3.492.868-.496-1.995-3.492z">
  </path> <path fill-rule="nonzero" d="M8.5 7c.828 0 1.5-.672 1.5-1.5s-.672-1.5-1.5-1.5-1.5.672-1.5 1.5.672 1.5 1.5 1.5zm0 1c-1.381 0-2.5-1.119-2.5-2.5s1.119-2.5 2.5-2.5 2.5 1.119 2.5 2.5-1.119 2.5-2.5 2.5zM5.5 24c.828 0 1.5-.672 1.5-1.5s-.672-1.5-1.5-1.5-1.5.672-1.5 1.5.672 1.5 1.5 1.5zm0 1c-1.381 0-2.5-1.119-2.5-2.5s1.119-2.5 2.5-2.5 2.5 1.119 2.5 2.5-1.119 2.5-2.5 2.5zM12.5 14c.828 0 1.5-.672 1.5-1.5s-.672-1.5-1.5-1.5-1.5.672-1.5 1.5.672 1.5 1.5 1.5zm0 1c-1.381 0-2.5-1.119-2.5-2.5s1.119-2.5 2.5-2.5 2.5 1.119 2.5 2.5-1.119 2.5-2.5 2.5zM20.5 8c.828 0 1.5-.672 1.5-1.5s-.672-1.5-1.5-1.5-1.5.672-1.5 1.5.672 1.5 1.5 1.5zm0 1c-1.381 0-2.5-1.119-2.5-2.5s1.119-2.5 2.5-2.5 2.5 1.119 2.5 2.5-1.119 2.5-2.5 2.5zM23.5 21c.828 0 1.5-.672 1.5-1.5s-.672-1.5-1.5-1.5-1.5.672-1.5 1.5.672 1.5 1.5 1.5zm0 1c-1.381 0-2.5-1.119-2.5-2.5s1.119-2.5 2.5-2.5 2.5 1.119 2.5 2.5-1.119 2.5-2.5 2.5z">
  </path> </g> </svg>