<svg xmlns="http://www.w3.org/2000/svg" viewBox="0 0 28 28" width="28" height="28"> <g fill="#ffffff" fill-rule="nonzero"> <path d="M.303 17.674l1.104.473.394-.919-1.104-.473z">
  </path> <path d="M5.133 19.744l3.335 1.429.394-.919-3.335-1.429z">
  </path> <path d="M12.134 22.744l3.352 1.436.394-.919-3.352-1.436z">
  </path> <path d="M19.203 25.774l1.6.686.394-.919-1.6-.686z">
  </path> <path d="M.3 4.673l1.13.484.394-.919-1.13-.484-.394.919zm.394-.919l1.13.484-.394.919-1.13-.484.394-.919z">
  </path> <path d="M5.141 6.747l3.325 1.425.394-.919-3.325-1.425z">
  </path> <path d="M12.133 9.744l3.353 1.437.394-.919-3.353-1.437z">
  </path> <path d="M19.221 12.782l5.838 2.502.394-.919-5.838-2.502z">
  </path> <path d="M3 7.473v8.969h1v-8.969zM8.93 9.871l-4.616 6.594.819.573 4.616-6.594zM11 19.5v-9h-1v9zM15.898 12.916l-4.616 6.594.819.573 4.616-6.594zM18 22.5v-9h-1v9zM24.313 5.212l-6.57 17.247.934.356 6.57-17.247z">
  </path> <path d="M3.5 7c.828 0 1.5-.672 1.5-1.5s-.672-1.5-1.5-1.5-1.5.672-1.5 1.5.672 1.5 1.5 1.5zm0 1c-1.381 0-2.5-1.119-2.5-2.5s1.119-2.5 2.5-2.5 2.5 1.119 2.5 2.5-1.119 2.5-2.5 2.5zM3.5 20c.828 0 1.5-.672 1.5-1.5s-.672-1.5-1.5-1.5-1.5.672-1.5 1.5.672 1.5 1.5 1.5zm0 1c-1.381 0-2.5-1.119-2.5-2.5s1.119-2.5 2.5-2.5 2.5 1.119 2.5 2.5-1.119 2.5-2.5 2.5zM10.5 23c.828 0 1.5-.672 1.5-1.5s-.672-1.5-1.5-1.5-1.5.672-1.5 1.5.672 1.5 1.5 1.5zm0 1c-1.381 0-2.5-1.119-2.5-2.5s1.119-2.5 2.5-2.5 2.5 1.119 2.5 2.5-1.119 2.5-2.5 2.5zM17.5 13c.828 0 1.5-.672 1.5-1.5s-.672-1.5-1.5-1.5-1.5.672-1.5 1.5.672 1.5 1.5 1.5zm0 1c-1.381 0-2.5-1.119-2.5-2.5s1.119-2.5 2.5-2.5 2.5 1.119 2.5 2.5-1.119 2.5-2.5 2.5zM25.5 5c.828 0 1.5-.672 1.5-1.5s-.672-1.5-1.5-1.5-1.5.672-1.5 1.5.672 1.5 1.5 1.5zm0 1c-1.381 0-2.5-1.119-2.5-2.5s1.119-2.5 2.5-2.5 2.5 1.119 2.5 2.5-1.119 2.5-2.5 2.5zM17.5 26c.828 0 1.5-.672 1.5-1.5s-.672-1.5-1.5-1.5-1.5.672-1.5 1.5.672 1.5 1.5 1.5zm0 1c-1.381 0-2.5-1.119-2.5-2.5s1.119-2.5 2.5-2.5 2.5 1.119 2.5 2.5-1.119 2.5-2.5 2.5zM10.5 10c.828 0 1.5-.672 1.5-1.5s-.672-1.5-1.5-1.5-1.5.672-1.5 1.5.672 1.5 1.5 1.5zm0 1c-1.381 0-2.5-1.119-2.5-2.5s1.119-2.5 2.5-2.5 2.5 1.119 2.5 2.5-1.119 2.5-2.5 2.5z">
  </path> </g> </svg>