<svg xmlns="http://www.w3.org/2000/svg" viewBox="0 0 28 28" width="28" height="28"> <g fill="#ffffff" fill-rule="nonzero"> <path d="M5.205 14.111l-.013-.172c-.054-.906.022-1.966.327-2.961.395-1.289 1.111-2.215 2.221-2.666l-.377-.926c-1.42.578-2.324 1.746-2.8 3.3-.346 1.128-.429 2.299-.369 3.313l.017.219.994-.106z">
  </path> <path d="M11.051 8.554c1.12.893 1.766 2.343 2.973 6.099 1.274 3.963 1.947 5.48 3.28 6.557l.629-.778c-1.112-.899-1.754-2.345-2.956-6.085-1.28-3.982-1.957-5.503-3.302-6.575l-.623.782z">
  </path> <path d="M21.722 21.558c1.439-.634 2.428-1.886 3.046-3.551.311-.836.509-1.726.618-2.616.066-.539.088-.967.088-1.227l-1 .002-.01.304c-.012.241-.035.51-.071.798-.101.818-.282 1.634-.563 2.39-.533 1.434-1.354 2.474-2.512 2.985l.403.915z">
  </path> <path d="M9.5 9c.828 0 1.5-.672 1.5-1.5s-.672-1.5-1.5-1.5-1.5.672-1.5 1.5.672 1.5 1.5 1.5zm0 1c-1.381 0-2.5-1.119-2.5-2.5s1.119-2.5 2.5-2.5 2.5 1.119 2.5 2.5-1.119 2.5-2.5 2.5zM19.5 23c.828 0 1.5-.672 1.5-1.5s-.672-1.5-1.5-1.5-1.5.672-1.5 1.5.672 1.5 1.5 1.5zm0 1c-1.381 0-2.5-1.119-2.5-2.5s1.119-2.5 2.5-2.5 2.5 1.119 2.5 2.5-1.119 2.5-2.5 2.5z">
  </path> </g> </svg>