<svg xmlns="http://www.w3.org/2000/svg" viewBox="0 0 28 28" width="28" height="28"> <g fill="#ffffff"> <path fill-rule="nonzero" d="M27.186 9.411c-.691-.27-1.429-.411-2.186-.411-3.314 0-6 2.686-6 6h1c0-2.761 2.239-5 5-5 .632 0 1.246.117 1.821.342l.364-.931z">
  </path> <path fill-rule="nonzero" d="M9 15c0-3.314-2.686-6-6-6-.754 0-1.489.139-2.177.407l.363.932c.573-.223 1.185-.339 1.814-.339 2.761 0 5 2.239 5 5h1z">
  </path> <path d="M8 15h1v1h-1v-1zm11 0h1v1h-1v-1zm1 0h-1c0-2.761-2.239-5-5-5s-5 2.239-5 5h-1c0-3.314 2.686-6 6-6s6 2.686 6 6z">
  </path> <path fill-rule="nonzero" d="M8.5 19c.828 0 1.5-.672 1.5-1.5s-.672-1.5-1.5-1.5-1.5.672-1.5 1.5.672 1.5 1.5 1.5zm0 1c-1.381 0-2.5-1.119-2.5-2.5s1.119-2.5 2.5-2.5 2.5 1.119 2.5 2.5-1.119 2.5-2.5 2.5zM19.5 19c.828 0 1.5-.672 1.5-1.5s-.672-1.5-1.5-1.5-1.5.672-1.5 1.5.672 1.5 1.5 1.5zm0 1c-1.381 0-2.5-1.119-2.5-2.5s1.119-2.5 2.5-2.5 2.5 1.119 2.5 2.5-1.119 2.5-2.5 2.5z">
  </path> </g> </svg>