<svg xmlns="http://www.w3.org/2000/svg" viewBox="0 0 28 28" width="28" height="28"> <g fill="#ffffff" fill-rule="nonzero"> <path d="M8.013 23.846c4.923 2.247 9.792 2.626 13.448-.517l-.652-.758c-3.277 2.817-7.775 2.467-12.381.365l-.415.91z">
  </path> <path d="M24.035 20.056c2.262-4.176 1.814-8.73-.13-12.98l-.909.416c1.826 3.993 2.244 8.24.16 12.088l.879.476z">
  </path> <path d="M8.221 21.401l13.249-14.077-.728-.685-13.249 14.077z">
  </path> <path d="M6.5 24c.828 0 1.5-.672 1.5-1.5s-.672-1.5-1.5-1.5-1.5.672-1.5 1.5.672 1.5 1.5 1.5zm0 1c-1.381 0-2.5-1.119-2.5-2.5s1.119-2.5 2.5-2.5 2.5 1.119 2.5 2.5-1.119 2.5-2.5 2.5zM22.5 7c.828 0 1.5-.672 1.5-1.5s-.672-1.5-1.5-1.5-1.5.672-1.5 1.5.672 1.5 1.5 1.5zm0 1c-1.381 0-2.5-1.119-2.5-2.5s1.119-2.5 2.5-2.5 2.5 1.119 2.5 2.5-1.119 2.5-2.5 2.5zM22.5 23c.828 0 1.5-.672 1.5-1.5s-.672-1.5-1.5-1.5-1.5.672-1.5 1.5.672 1.5 1.5 1.5zm0 1c-1.381 0-2.5-1.119-2.5-2.5s1.119-2.5 2.5-2.5 2.5 1.119 2.5 2.5-1.119 2.5-2.5 2.5z">
  </path> </g> </svg>