<svg xmlns="http://www.w3.org/2000/svg" viewBox="0 0 28 28" width="28" height="28"> <g fill="#ffffff" fill-rule="nonzero"> <path d="M17.605 19.584c.295-2.304-.584-3.586-3.274-5.959-2.462-2.172-3.191-3.241-2.94-5.111l-.991-.133c-.312 2.322.567 3.61 3.269 5.994 2.452 2.163 3.181 3.227 2.943 5.083l.992.127z">
  </path> <path d="M6.053 24.868c3.772 1.644 7.307 1.643 9.712-1.249l-.769-.64c-2.045 2.458-5.133 2.459-8.544.972l-.4.917z">
  </path> <path d="M12.949 5.087c2.044-2.525 5.157-2.54 8.602-1.036l.4-.917c-3.81-1.663-7.376-1.646-9.779 1.324l.777.629z">
  </path> <path d="M4.5 25c.828 0 1.5-.672 1.5-1.5s-.672-1.5-1.5-1.5-1.5.672-1.5 1.5.672 1.5 1.5 1.5zm0 1c-1.381 0-2.5-1.119-2.5-2.5s1.119-2.5 2.5-2.5 2.5 1.119 2.5 2.5-1.119 2.5-2.5 2.5zM16.5 23c.828 0 1.5-.672 1.5-1.5s-.672-1.5-1.5-1.5-1.5.672-1.5 1.5.672 1.5 1.5 1.5zm0 1c-1.381 0-2.5-1.119-2.5-2.5s1.119-2.5 2.5-2.5 2.5 1.119 2.5 2.5-1.119 2.5-2.5 2.5zM11.5 8c.828 0 1.5-.672 1.5-1.5s-.672-1.5-1.5-1.5-1.5.672-1.5 1.5.672 1.5 1.5 1.5zm0 1c-1.381 0-2.5-1.119-2.5-2.5s1.119-2.5 2.5-2.5 2.5 1.119 2.5 2.5-1.119 2.5-2.5 2.5zM23.5 6c.828 0 1.5-.672 1.5-1.5s-.672-1.5-1.5-1.5-1.5.672-1.5 1.5.672 1.5 1.5 1.5zm0 1c-1.381 0-2.5-1.119-2.5-2.5s1.119-2.5 2.5-2.5 2.5 1.119 2.5 2.5-1.119 2.5-2.5 2.5z">
  </path> </g> </svg>