<svg xmlns="http://www.w3.org/2000/svg" viewBox="0 0 28 28" width="28" height="28"> <g fill="#ffffff" fill-rule="nonzero"> <path d="M12.435 6.136c-4.411.589-7.983 3.039-9.085 6.27l.946.323c.967-2.836 4.209-5.059 8.271-5.602l-.132-.991zM3.347 16.584c1.101 3.243 4.689 5.701 9.117 6.283l.13-.991c-4.079-.537-7.335-2.767-8.301-5.613l-.947.321zM16.554 22.865c4.381-.582 7.94-3 9.071-6.2l-.943-.333c-.994 2.811-4.224 5.006-8.26 5.542l.132.991zM25.646 12.394c-1.107-3.225-4.675-5.668-9.078-6.257l-.133.991c4.056.542 7.293 2.76 8.265 5.591l.946-.325z">
  </path> <path d="M14.5 8c.828 0 1.5-.672 1.5-1.5s-.672-1.5-1.5-1.5-1.5.672-1.5 1.5.672 1.5 1.5 1.5zm0 1c-1.381 0-2.5-1.119-2.5-2.5s1.119-2.5 2.5-2.5 2.5 1.119 2.5 2.5-1.119 2.5-2.5 2.5zM14.5 24c.828 0 1.5-.672 1.5-1.5s-.672-1.5-1.5-1.5-1.5.672-1.5 1.5.672 1.5 1.5 1.5zm0 1c-1.381 0-2.5-1.119-2.5-2.5s1.119-2.5 2.5-2.5 2.5 1.119 2.5 2.5-1.119 2.5-2.5 2.5zM3.5 16c.828 0 1.5-.672 1.5-1.5s-.672-1.5-1.5-1.5-1.5.672-1.5 1.5.672 1.5 1.5 1.5zm0 1c-1.381 0-2.5-1.119-2.5-2.5s1.119-2.5 2.5-2.5 2.5 1.119 2.5 2.5-1.119 2.5-2.5 2.5zM25.5 16c.828 0 1.5-.672 1.5-1.5s-.672-1.5-1.5-1.5-1.5.672-1.5 1.5.672 1.5 1.5 1.5zm0 1c-1.381 0-2.5-1.119-2.5-2.5s1.119-2.5 2.5-2.5 2.5 1.119 2.5 2.5-1.119 2.5-2.5 2.5z">
  </path> </g> </svg>