<svg xmlns="http://www.w3.org/2000/svg" viewBox="0 0 28 28" width="28" height="28">
  <g fill="#ffffff" fill-rule="nonzero">
    <path d="M24.5 2.5c-1.1-.3-2.3.1-3 1L12.5 15c-.5.7-.5 1.7.1 2.3l2.1 2.1c.6.6 1.6.6 2.3.1l11.5-9c.9-.7 1.3-1.9 1-3-.3-1.1-1.2-2-2.3-2.3-.9-.2-1.8-.5-2.7-.7zm-.8 1.8l2.4.6c.5.1.9.5 1 1 .1.5-.1 1-.4 1.3L15.2 18.7l-1.9-1.9 11.4-8.5z"/>
    <path d="M6.5 21.5c-.8.8-2 1.2-3 1-.5-.1-.9-.4-1.2-.8-.3-.4-.4-.9-.3-1.4.2-.8.7-1.5 1.5-2l3-2.3 3 3-3 2.5z"/>
    <path d="M9 19l-3 2.5c-.5.4-.7.7-.8 1.1-.1.3.1.6.3.8.2.2.5.2.8.1.4-.1.7-.4 1.1-.8L10 20l-1-1z"/>
  </g>
</svg>
