<svg xmlns="http://www.w3.org/2000/svg" viewBox="0 0 28 28" width="28" height="28"> <g fill="#ffffff"> <path fill-rule="nonzero" d="M5.238 18.469l4.17-4.17-.707-.707-4.17 4.17zM16.47 17.763l-.707.707-4.265-4.265.707-.707zM22.747 13.546l-4.192 4.192.707.707 4.192-4.192z">
  </path> <path fill-rule="nonzero" d="M10.5 14c.828 0 1.5-.672 1.5-1.5s-.672-1.5-1.5-1.5-1.5.672-1.5 1.5.672 1.5 1.5 1.5zm0 1c-1.381 0-2.5-1.119-2.5-2.5s1.119-2.5 2.5-2.5 2.5 1.119 2.5 2.5-1.119 2.5-2.5 2.5zM17.5 21c.828 0 1.5-.672 1.5-1.5s-.672-1.5-1.5-1.5-1.5.672-1.5 1.5.672 1.5 1.5 1.5zm0 1c-1.381 0-2.5-1.119-2.5-2.5s1.119-2.5 2.5-2.5 2.5 1.119 2.5 2.5-1.119 2.5-2.5 2.5zM24.5 14c.828 0 1.5-.672 1.5-1.5s-.672-1.5-1.5-1.5-1.5.672-1.5 1.5.672 1.5 1.5 1.5zm0 1c-1.381 0-2.5-1.119-2.5-2.5s1.119-2.5 2.5-2.5 2.5 1.119 2.5 2.5-1.119 2.5-2.5 2.5zM3.5 21c.828 0 1.5-.672 1.5-1.5s-.672-1.5-1.5-1.5-1.5.672-1.5 1.5.672 1.5 1.5 1.5zm0 1c-1.381 0-2.5-1.119-2.5-2.5s1.119-2.5 2.5-2.5 2.5 1.119 2.5 2.5-1.119 2.5-2.5 2.5z">
  </path> <path d="M11.148 7h-1.098v-4.137c-.401.375-.874.652-1.418.832v-.996c.286-.094.598-.271.934-.533.336-.262.566-.567.691-.916h.891v5.75z">
  </path> <path d="M23.355 5.527l1.094-.113c.031.247.124.443.277.588.154.145.331.217.531.217.229 0 .423-.093.582-.279.159-.186.238-.467.238-.842 0-.352-.079-.615-.236-.791-.158-.176-.363-.264-.615-.264-.315 0-.598.139-.848.418l-.891-.129.563-2.98h2.902v1.027h-2.07l-.172.973c.245-.122.495-.184.75-.184.487 0 .9.177 1.238.531.339.354.508.814.508 1.379 0 .471-.137.892-.41 1.262-.372.505-.889.758-1.551.758-.529 0-.96-.142-1.293-.426-.333-.284-.533-.665-.598-1.145z">
  </path> </g> </svg>