<svg xmlns="http://www.w3.org/2000/svg" viewBox="0 0 28 28" width="28" height="28"> <g fill="#ffffff"> <path fill-rule="nonzero" d="M5.238 18.469l4.17-4.17-.707-.707-4.17 4.17zM16.47 17.763l-.707.707-4.265-4.265.707-.707zM22.747 13.546l-4.192 4.192.707.707 4.192-4.192z">
  </path> <path fill-rule="nonzero" d="M10.5 14c.828 0 1.5-.672 1.5-1.5s-.672-1.5-1.5-1.5-1.5.672-1.5 1.5.672 1.5 1.5 1.5zm0 1c-1.381 0-2.5-1.119-2.5-2.5s1.119-2.5 2.5-2.5 2.5 1.119 2.5 2.5-1.119 2.5-2.5 2.5zM17.5 21c.828 0 1.5-.672 1.5-1.5s-.672-1.5-1.5-1.5-1.5.672-1.5 1.5.672 1.5 1.5 1.5zm0 1c-1.381 0-2.5-1.119-2.5-2.5s1.119-2.5 2.5-2.5 2.5 1.119 2.5 2.5-1.119 2.5-2.5 2.5zM24.5 14c.828 0 1.5-.672 1.5-1.5s-.672-1.5-1.5-1.5-1.5.672-1.5 1.5.672 1.5 1.5 1.5zm0 1c-1.381 0-2.5-1.119-2.5-2.5s1.119-2.5 2.5-2.5 2.5 1.119 2.5 2.5-1.119 2.5-2.5 2.5zM3.5 21c.828 0 1.5-.672 1.5-1.5s-.672-1.5-1.5-1.5-1.5.672-1.5 1.5.672 1.5 1.5 1.5zm0 1c-1.381 0-2.5-1.119-2.5-2.5s1.119-2.5 2.5-2.5 2.5 1.119 2.5 2.5-1.119 2.5-2.5 2.5z">
  </path> <path d="M13.746 7h-1.258l-.5-1.301h-2.289l-.473 1.301h-1.227l2.23-5.727h1.223l2.293 5.727zm-2.129-2.266l-.789-2.125-.773 2.125h1.563z">
  </path> <path d="M22.582 7v-5.727h4.246v.969h-3.09v1.27h2.875v.965h-2.875v1.559h3.199v.965z">
  </path> </g> </svg>