<svg xmlns="http://www.w3.org/2000/svg" viewBox="0 0 28 28" width="28" height="28"> <g fill="#ffffff"> <path fill-rule="nonzero" d="M5.238 18.469l4.17-4.17-.707-.707-4.17 4.17zM16.47 17.763l-.707.707-4.265-4.265.707-.707zM22.747 13.546l-4.192 4.192.707.707 4.192-4.192z">
  </path> <path fill-rule="nonzero" d="M10.5 14c.828 0 1.5-.672 1.5-1.5s-.672-1.5-1.5-1.5-1.5.672-1.5 1.5.672 1.5 1.5 1.5zm0 1c-1.381 0-2.5-1.119-2.5-2.5s1.119-2.5 2.5-2.5 2.5 1.119 2.5 2.5-1.119 2.5-2.5 2.5zM17.5 21c.828 0 1.5-.672 1.5-1.5s-.672-1.5-1.5-1.5-1.5.672-1.5 1.5.672 1.5 1.5 1.5zm0 1c-1.381 0-2.5-1.119-2.5-2.5s1.119-2.5 2.5-2.5 2.5 1.119 2.5 2.5-1.119 2.5-2.5 2.5zM24.5 14c.828 0 1.5-.672 1.5-1.5s-.672-1.5-1.5-1.5-1.5.672-1.5 1.5.672 1.5 1.5 1.5zm0 1c-1.381 0-2.5-1.119-2.5-2.5s1.119-2.5 2.5-2.5 2.5 1.119 2.5 2.5-1.119 2.5-2.5 2.5zM3.5 21c.828 0 1.5-.672 1.5-1.5s-.672-1.5-1.5-1.5-1.5.672-1.5 1.5.672 1.5 1.5 1.5zm0 1c-1.381 0-2.5-1.119-2.5-2.5s1.119-2.5 2.5-2.5 2.5 1.119 2.5 2.5-1.119 2.5-2.5 2.5z">
  </path> <path d="M13.746 7h-1.258l-.5-1.301h-2.289l-.473 1.301h-1.227l2.23-5.727h1.223l2.293 5.727zm-2.129-2.266l-.789-2.125-.773 2.125h1.563z">
  </path> <path d="M26.246 4.895l1.121.355c-.172.625-.458 1.089-.857 1.393-.4.303-.907.455-1.521.455-.76 0-1.385-.26-1.875-.779-.49-.52-.734-1.23-.734-2.131 0-.953.246-1.693.738-2.221.492-.527 1.139-.791 1.941-.791.701 0 1.27.207 1.707.621.26.245.456.596.586 1.055l-1.145.273c-.068-.297-.209-.531-.424-.703-.215-.172-.476-.258-.783-.258-.424 0-.769.152-1.033.457-.264.305-.396.798-.396 1.48 0 .724.13 1.24.391 1.547.26.307.599.461 1.016.461.307 0 .572-.098.793-.293.221-.195.38-.503.477-.922z">
  </path> </g> </svg>