<svg xmlns="http://www.w3.org/2000/svg" viewBox="0 0 28 28" width="28" height="28" fill="#ffffff"> <path fill-rule="evenodd" clip-rule="evenodd" d="M22.38 4.04h.04a1.3 1.3 0 0 1 1.21.33c.37.36.42.84.33 1.2v.04l-2.45 8.32c-.14.55-.57.91-1 1.04-.45.14-1.2.07-1.55-.63l-.34-.64-12.6 10.03c-.3.25-.67.31-1 .25a1.3 1.3 0 0 1-1.01-1.06c-.05-.31.02-.69.29-.99l.02-.02a35.13 35.13 0 0 0 .47-.57 1749.6 1749.6 0 0 0 5-6.15l3.7-4.57.91-1.13-.63-.33c-.7-.36-.77-1.1-.64-1.55.13-.44.5-.86 1.03-1l8.22-2.57zm-7.95 3.53c-.35.08-.5.56-.2.7l1.71.91-.64.8a17294.8 17294.8 0 0 1-10.24 12.6l-.01.02c-.17.19.15.52.33.35l13.55-10.78.92 1.7c.14.3.62.16.7-.2l2.44-8.31c.05-.24-.1-.4-.35-.35l-8.2 2.56zM5.8 23.27z">
  </path> </svg>