<svg xmlns="http://www.w3.org/2000/svg" viewBox="0 0 28 28" width="28" height="28" fill="#ffffff"> <path fill="#ffffff" fill-rule="evenodd" clip-rule="evenodd" d="M5 21.5a1.5 1.5 0 1 1-3 0 1.5 1.5 0 0 1 3 0zM3.5 24a2.5 2.5 0 0 0 .5-4.95V3H3v16.05A2.5 2.5 0 0 0 3.5 24zM25 5.5a1.5 1.5 0 1 0-3 0 1.5 1.5 0 0 0 3 0zM23.5 3a2.5 2.5 0 0 1 .5 4.95V24h-1V7.95A2.5 2.5 0 0 1 23.5 3z">
  </path> <path fill="#ffffff" fill-rule="evenodd" clip-rule="evenodd" d="M9 7H4v2h5V7zM3 6v4h7V6H3z">
  </path> <path fill="#ffffff" fill-rule="evenodd" clip-rule="evenodd" d="M12 10H4v2h8v-2zM3 9v4h10V9H3z">
  </path> <path fill="#ffffff" fill-rule="evenodd" clip-rule="evenodd" d="M7 13H4v2h3v-2zm-4-1v4h5v-4H3z">
  </path> </svg>